<svg width="77" height="78" viewBox="0 0 77 78" fill="none" xmlns="http://www.w3.org/2000/svg">
<path d="M38.125 0L46.6846 26.9483H74.384L51.9747 43.6033L60.5343 70.5517L38.125 53.8967L15.7157 70.5517L24.2753 43.6033L1.86597 26.9483H29.5654L38.125 0Z" fill="#A86F9B"/>
<path d="M30.234 47.8418C29.946 47.6818 29.786 47.5058 29.754 47.3138C29.738 47.1218 29.85 46.7858 30.09 46.3058C30.33 45.8258 30.706 45.0818 31.218 44.0738C31.602 43.3538 31.858 42.7938 31.986 42.3938C32.13 41.9778 32.21 41.6818 32.226 41.5058C32.242 41.3298 32.25 41.2178 32.25 41.1698C32.218 41.0258 32.234 40.9138 32.298 40.8338C32.362 40.7378 32.466 40.6578 32.61 40.5938C32.69 40.5138 32.874 40.3698 33.162 40.1618C33.45 39.9538 33.674 39.7058 33.834 39.4178C33.978 39.0818 34.138 38.7378 34.314 38.3858C34.506 38.0338 34.754 37.5938 35.058 37.0658C35.362 36.5218 35.77 35.8178 36.282 34.9538C36.602 34.3938 36.978 33.7618 37.41 33.0578C37.858 32.3538 38.298 31.7138 38.73 31.1378C38.906 30.9138 39.09 30.7378 39.282 30.6098C39.474 30.4818 39.642 30.4178 39.786 30.4178C40.138 30.4178 40.49 30.5138 40.842 30.7058C41.194 30.8818 41.506 31.1058 41.778 31.3778C42.05 31.6498 42.234 31.9058 42.33 32.1458C42.41 32.2738 42.442 32.5458 42.426 32.9618C42.41 33.3778 42.378 33.8818 42.33 34.4738C42.282 35.0658 42.226 35.6978 42.162 36.3698C42.114 37.0258 42.042 37.8018 41.946 38.6978C41.85 39.5938 41.754 40.5298 41.658 41.5058C41.578 42.4818 41.514 43.4258 41.466 44.3378C41.418 45.2338 41.418 46.0178 41.466 46.6898C41.482 46.8338 41.482 46.9698 41.466 47.0978C41.45 47.2258 41.442 47.3298 41.442 47.4098C41.346 47.5058 41.138 47.5458 40.818 47.5298C40.498 47.5298 40.186 47.4818 39.882 47.3858C39.578 47.2898 39.41 47.1698 39.378 47.0258C39.33 46.9778 39.298 46.9378 39.282 46.9058C39.266 46.8738 39.266 46.7218 39.282 46.4498C39.298 46.1618 39.322 45.6418 39.354 44.8898L39.474 41.2178L39.162 41.2418C39.018 41.2418 38.754 41.2578 38.37 41.2898C38.002 41.3218 37.594 41.3698 37.146 41.4338C36.714 41.4818 36.314 41.5378 35.946 41.6018C35.578 41.6498 35.322 41.6978 35.178 41.7458C35.034 41.7458 34.858 41.8418 34.65 42.0338C34.458 42.2258 34.274 42.4738 34.098 42.7778C34.034 43.0018 33.914 43.2418 33.738 43.4978C33.578 43.7378 33.498 43.8978 33.498 43.9778C33.386 44.0578 33.29 44.1538 33.21 44.2658C33.146 44.3778 33.114 44.4338 33.114 44.4338C33.114 44.5298 33.042 44.7698 32.898 45.1538C32.754 45.5218 32.578 45.9378 32.37 46.4018C32.162 46.8498 31.946 47.2418 31.722 47.5778L31.074 48.4898L30.234 47.8418ZM35.97 39.5858C35.97 39.5858 36.058 39.5698 36.234 39.5378C36.41 39.5058 36.618 39.4738 36.858 39.4418C37.114 39.3938 37.338 39.3698 37.53 39.3698C37.898 39.2738 38.202 39.2018 38.442 39.1538C38.698 39.1058 38.906 39.0818 39.066 39.0818C39.226 39.0658 39.354 39.0818 39.45 39.1298C39.514 39.2098 39.57 39.2578 39.618 39.2738C39.682 39.2898 39.714 39.2978 39.714 39.2978C39.73 39.2658 39.762 39.0978 39.81 38.7938C39.858 38.4898 39.914 38.1138 39.978 37.6658C40.042 37.2178 40.106 36.7538 40.17 36.2738C40.234 35.7778 40.29 35.3218 40.338 34.9058C40.386 34.4738 40.418 34.1378 40.434 33.8978C40.45 33.5938 40.442 33.3218 40.41 33.0818C40.378 32.8258 40.362 32.6978 40.362 32.6978C40.266 32.6978 40.082 32.8738 39.81 33.2258C39.554 33.5618 39.25 34.0178 38.898 34.5938C38.562 35.1538 38.226 35.7618 37.89 36.4178C37.73 36.7218 37.578 36.9618 37.434 37.1378C37.306 37.3138 37.202 37.4018 37.122 37.4018C37.09 37.4338 37.002 37.5618 36.858 37.7858C36.73 37.9938 36.586 38.2338 36.426 38.5058C36.282 38.7618 36.154 39.0018 36.042 39.2258C35.946 39.4338 35.922 39.5538 35.97 39.5858Z" fill="#FFFCFC"/>
</svg>
