<svg width="2415" height="255" viewBox="0 0 2415 255" fill="none" xmlns="http://www.w3.org/2000/svg">
<path fill-rule="evenodd" clip-rule="evenodd" d="M2415 0H0V64H43.2408C17.863 70.5608 -0.10619 87.1344 0.000472324 106.495C0.0656836 118.332 6.87567 129.091 17.9746 137.133C14.4447 142.464 12.5069 148.327 12.5408 154.48C12.6483 174.001 32.5754 190.51 60.1061 196.262C70.5267 219.986 100.415 237.079 135.564 236.984C146.956 236.954 157.775 235.121 167.542 231.848C186.73 245.263 215.181 253.723 246.894 253.638C293.369 253.513 332.638 235.075 345.935 209.72C356.568 213 368.493 214.824 381.083 214.79C395.627 214.751 409.258 212.238 421.013 207.874C434.639 225.945 460.565 238.118 490.243 238.038C501.635 238.007 512.454 236.175 522.221 232.901C541.409 246.317 569.861 254.777 601.574 254.692C648.049 254.567 687.317 236.129 700.615 210.774C711.248 214.054 723.173 215.878 735.763 215.844C755.081 215.792 772.788 211.375 786.629 204.053C799.828 223.178 826.527 236.221 857.245 236.138C868.637 236.108 879.456 234.275 889.223 231.002C908.411 244.418 936.863 252.877 968.575 252.792C1015.05 252.667 1054.32 234.229 1067.62 208.874C1078.25 212.155 1090.18 213.978 1102.76 213.944C1129.59 213.872 1153.31 205.382 1167.89 192.383C1170.41 193.14 1173.03 193.803 1175.71 194.363C1186.13 218.088 1216.02 235.18 1251.17 235.086C1262.56 235.055 1273.38 233.222 1283.14 229.949C1302.33 243.365 1330.78 251.824 1362.5 251.739C1408.97 251.614 1448.24 233.177 1461.54 207.822C1472.17 211.102 1484.1 212.925 1496.69 212.892C1521.95 212.824 1544.46 205.289 1559.17 193.553C1569.69 217.15 1599.49 234.126 1634.52 234.031C1645.91 234.001 1656.73 232.168 1666.5 228.895C1685.69 242.311 1714.14 250.77 1745.85 250.685C1792.33 250.56 1831.6 232.123 1844.9 206.768C1855.53 210.048 1867.45 211.871 1880.04 211.837C1902.89 211.776 1923.48 205.611 1938.09 195.756C1949.8 217.643 1978.45 233.068 2011.84 232.979C2023.24 232.948 2034.05 231.115 2043.82 227.842C2063.01 241.258 2091.46 249.717 2123.17 249.632C2169.65 249.507 2208.92 231.07 2222.22 205.715C2232.85 208.995 2244.77 210.818 2257.36 210.785C2301.87 210.665 2337.82 187.382 2337.66 158.779C2337.65 156.386 2337.38 154.031 2336.88 151.724C2367.3 145.058 2389.12 126.624 2389 104.987C2388.9 87.8205 2375.02 72.7449 2354.06 64H2415V0Z" fill="url(#paint0_linear_154_243)"/>
<defs>
<linearGradient id="paint0_linear_154_243" x1="1208" y1="211" x2="1208" y2="5.01252e-06" gradientUnits="userSpaceOnUse">
<stop stop-color="#F8F8F8"/>
<stop offset="0.333333" stop-color="#FFFBFB"/>
<stop offset="0.666667" stop-color="white"/>
<stop offset="1" stop-color="white"/>
</linearGradient>
</defs>
</svg>
