<svg width="85" height="89" viewBox="0 0 85 89" fill="none" xmlns="http://www.w3.org/2000/svg">
<g clip-path="url(#clip0_141_186)">
<path d="M3.36458 49.3208C2.30208 47.0958 1.47569 44.8399 0.885417 42.5531C0.295139 40.2663 0 37.9486 0 35.6C0 28.6778 2.24306 22.8681 6.72917 18.1708C11.2153 13.4736 16.7639 11.125 23.375 11.125C27.0937 11.125 30.6354 11.9439 34 13.5818C37.3646 15.2196 40.1979 17.491 42.5 20.3958C44.8021 17.491 47.6354 15.2196 51 13.5818C54.3646 11.9439 57.9062 11.125 61.625 11.125C68.2361 11.125 73.7847 13.4736 78.2708 18.1708C82.7569 22.8681 85 28.6778 85 35.6C85 37.9486 84.7049 40.2663 84.1146 42.5531C83.5243 44.8399 82.6979 47.0958 81.6354 49.3208C80.9861 48.1465 80.2187 47.0958 79.3333 46.1687C78.4479 45.2417 77.4149 44.5 76.2344 43.9437C76.7656 42.5222 77.1788 41.1316 77.474 39.7719C77.7691 38.4122 77.9167 37.0215 77.9167 35.6C77.9167 30.7792 76.3524 26.7309 73.224 23.4552C70.0955 20.1795 66.2292 18.5417 61.625 18.5417C56.8437 18.5417 53.1693 19.9168 50.6016 22.6672C48.0339 25.4175 45.3333 28.4924 42.5 31.8917C39.6667 28.4306 36.9661 25.3403 34.3984 22.6208C31.8307 19.9014 28.1562 18.5417 23.375 18.5417C18.7708 18.5417 14.9045 20.1795 11.776 23.4552C8.64757 26.7309 7.08333 30.7792 7.08333 35.6C7.08333 37.0215 7.2309 38.4122 7.52604 39.7719C7.82118 41.1316 8.23437 42.5222 8.76562 43.9437C7.58507 44.5 6.55208 45.2417 5.66667 46.1687C4.78125 47.0958 4.01389 48.1465 3.36458 49.3208ZM0 81.5833V75.7427C0 73.0233 1.31337 70.8446 3.9401 69.2068C6.56684 67.5689 9.97569 66.75 14.1667 66.75C14.934 66.75 15.6719 66.7654 16.3802 66.7964C17.0885 66.8273 17.7674 66.9045 18.4167 67.0281C17.5903 68.2642 16.9705 69.5931 16.5573 71.0146C16.1441 72.4361 15.9375 73.9503 15.9375 75.5573V81.5833H0ZM21.25 81.5833V75.5573C21.25 71.5399 23.2127 68.2951 27.138 65.8229C31.0634 63.3507 36.184 62.1146 42.5 62.1146C48.875 62.1146 54.0104 63.3507 57.9062 65.8229C61.8021 68.2951 63.75 71.5399 63.75 75.5573V81.5833H21.25ZM69.0625 81.5833V75.5573C69.0625 73.9503 68.8707 72.4361 68.487 71.0146C68.1033 69.5931 67.5278 68.2642 66.7604 67.0281C67.4097 66.9045 68.0738 66.8273 68.7526 66.7964C69.4314 66.7654 70.125 66.75 70.8333 66.75C75.0833 66.75 78.5069 67.5689 81.1042 69.2068C83.7014 70.8446 85 73.0233 85 75.7427V81.5833H69.0625ZM14.1667 63.0417C12.2187 63.0417 10.5512 62.3154 9.16406 60.863C7.77691 59.4106 7.08333 57.6646 7.08333 55.625C7.08333 53.5236 7.77691 51.7621 9.16406 50.3406C10.5512 48.9191 12.2187 48.2083 14.1667 48.2083C16.1736 48.2083 17.8559 48.9191 19.2135 50.3406C20.5712 51.7621 21.25 53.5236 21.25 55.625C21.25 57.6646 20.5712 59.4106 19.2135 60.863C17.8559 62.3154 16.1736 63.0417 14.1667 63.0417ZM70.8333 63.0417C68.8854 63.0417 67.2179 62.3154 65.8307 60.863C64.4436 59.4106 63.75 57.6646 63.75 55.625C63.75 53.5236 64.4436 51.7621 65.8307 50.3406C67.2179 48.9191 68.8854 48.2083 70.8333 48.2083C72.8403 48.2083 74.5226 48.9191 75.8802 50.3406C77.2378 51.7621 77.9167 53.5236 77.9167 55.625C77.9167 57.6646 77.2378 59.4106 75.8802 60.863C74.5226 62.3154 72.8403 63.0417 70.8333 63.0417ZM42.5 59.3333C39.5486 59.3333 37.0399 58.2517 34.974 56.0885C32.908 53.9253 31.875 51.2986 31.875 48.2083C31.875 45.0562 32.908 42.4141 34.974 40.2818C37.0399 38.1495 39.5486 37.0833 42.5 37.0833C45.5104 37.0833 48.0339 38.1495 50.0703 40.2818C52.1068 42.4141 53.125 45.0562 53.125 48.2083C53.125 51.2986 52.1068 53.9253 50.0703 56.0885C48.0339 58.2517 45.5104 59.3333 42.5 59.3333Z" fill="#03B368"/>
</g>
<defs>
<clipPath id="clip0_141_186">
<rect width="85" height="89" fill="white"/>
</clipPath>
</defs>
</svg>
