<svg width="85" height="89" viewBox="0 0 85 89" fill="none" xmlns="http://www.w3.org/2000/svg">
<path d="M33.3333 50.2083H40.4167L40.9479 45.5729C41.4201 45.3875 41.8481 45.1712 42.2318 44.924C42.6155 44.6767 42.9549 44.3986 43.25 44.0896L47.3229 45.9437L50.8646 39.6396L47.3229 36.8583C47.441 36.3639 47.5 35.8694 47.5 35.375C47.5 34.8806 47.441 34.3861 47.3229 33.8917L50.8646 31.1104L47.3229 24.8062L43.25 26.6604C42.9549 26.3514 42.6155 26.0733 42.2318 25.826C41.8481 25.5788 41.4201 25.3625 40.9479 25.1771L40.4167 20.5417H33.3333L32.8021 25.1771C32.3299 25.3625 31.9019 25.5788 31.5182 25.826C31.1346 26.0733 30.7951 26.3514 30.5 26.6604L26.4271 24.8062L22.8854 31.1104L26.4271 33.8917C26.309 34.3861 26.25 34.8806 26.25 35.375C26.25 35.8694 26.309 36.3639 26.4271 36.8583L22.8854 39.6396L26.4271 45.9437L30.5 44.0896C30.7951 44.3986 31.1346 44.6767 31.5182 44.924C31.9019 45.1712 32.3299 45.3875 32.8021 45.5729L33.3333 50.2083ZM36.875 40.9375C35.3993 40.9375 34.145 40.3967 33.112 39.3151C32.079 38.2335 31.5625 36.9201 31.5625 35.375C31.5625 33.8299 32.079 32.5165 33.112 31.4349C34.145 30.3533 35.3993 29.8125 36.875 29.8125C38.3507 29.8125 39.605 30.3533 40.638 31.4349C41.671 32.5165 42.1875 33.8299 42.1875 35.375C42.1875 36.9201 41.671 38.2335 40.638 39.3151C39.605 40.3967 38.3507 40.9375 36.875 40.9375ZM15.625 76.1667V60.2208C12.2604 57.0069 9.64844 53.2523 7.78906 48.9568C5.92969 44.6613 5 40.134 5 35.375C5 26.1042 8.09896 18.224 14.2969 11.7344C20.4948 5.24479 28.0208 2 36.875 2C44.2535 2 50.7908 4.27135 56.487 8.81406C62.1832 13.3568 65.8872 19.2747 67.599 26.5677L72.2031 45.5729C72.4983 46.7472 72.2917 47.8134 71.5833 48.7714C70.875 49.7293 69.9306 50.2083 68.75 50.2083H61.6667V61.3333C61.6667 63.3729 60.9731 65.1189 59.5859 66.5713C58.1988 68.0238 56.5313 68.75 54.5833 68.75H47.5V76.1667H15.625Z" fill="#03B368"/>
</svg>
