<svg width="77" height="78" viewBox="0 0 77 78" fill="none" xmlns="http://www.w3.org/2000/svg">
<path d="M38.125 0L46.6846 26.9483H74.384L51.9747 43.6033L60.5343 70.5517L38.125 53.8967L15.7157 70.5517L24.2753 43.6033L1.86597 26.9483H29.5654L38.125 0Z" fill="#03B368"/>
<path d="M31.9184 48.4898C31.8544 48.6498 31.6384 48.7298 31.2704 48.7298C30.9024 48.7298 30.5824 48.6258 30.3104 48.4178C30.1184 48.2258 29.9904 48.0738 29.9264 47.9618C29.8784 47.8658 29.9104 47.6898 30.0224 47.4338C30.1344 47.1938 30.3264 46.7618 30.5984 46.1378C30.6624 45.7538 30.7744 45.3698 30.9344 44.9858C31.0944 44.5858 31.2144 44.3058 31.2944 44.1458C31.3584 43.9218 31.4864 43.5538 31.6784 43.0418C31.8864 42.5138 32.1184 41.9298 32.3744 41.2898C32.6464 40.6498 32.9024 40.0498 33.1424 39.4898C33.3824 38.9138 33.5584 38.4818 33.6704 38.1938C33.9424 37.5538 34.2224 36.8818 34.5104 36.1778C34.7984 35.4738 35.1904 34.5858 35.6864 33.5138C35.7504 33.3538 35.7264 33.1858 35.6144 33.0098C35.5024 32.8338 35.3104 32.7458 35.0384 32.7458C34.8784 32.5698 34.7904 32.3858 34.7744 32.1938C34.7584 31.9858 34.8384 31.8418 35.0144 31.7618L37.2224 31.0178C37.9744 30.8418 38.7424 30.7938 39.5264 30.8738C40.3264 30.9378 41.0784 31.1538 41.7824 31.5218C42.5504 31.9698 43.1104 32.4658 43.4624 33.0098C43.8144 33.5538 44.0064 34.1058 44.0384 34.6658C44.0864 35.2098 44.0224 35.7058 43.8464 36.1538C43.7184 36.4898 43.4704 36.8578 43.1024 37.2578C42.7504 37.6578 42.3344 38.0578 41.8544 38.4578C41.3904 38.8578 40.9024 39.2258 40.3904 39.5618C39.8944 39.8818 39.4304 40.1298 38.9984 40.3058C38.5984 40.4978 38.1504 40.6978 37.6544 40.9058C37.1584 41.0978 36.6784 41.2658 36.2144 41.4098C35.9584 41.4738 35.6544 41.5058 35.3024 41.5058C34.9504 41.5058 34.6864 41.4738 34.5104 41.4098L34.1024 42.1778C33.9424 42.7538 33.6624 43.6098 33.2624 44.7458C32.8784 45.8818 32.4304 47.1298 31.9184 48.4898ZM41.4464 48.9458C41.3184 48.9938 41.1024 49.0098 40.7984 48.9938C40.5104 48.9778 40.1824 48.8498 39.8144 48.6098C39.1104 48.1938 38.4064 47.6898 37.7024 47.0978C36.9984 46.5058 36.2064 45.7058 35.3264 44.6978C34.9904 44.2978 34.7344 43.8978 34.5584 43.4978C34.3984 43.0978 34.1904 42.5938 33.9344 41.9858L33.5984 40.6898L34.5104 40.0898L35.5664 40.9538C35.8224 41.5138 36.1184 42.0498 36.4544 42.5618C36.8064 43.0738 37.1584 43.5298 37.5104 43.9298C37.7984 44.2658 38.1904 44.6738 38.6864 45.1538C39.1824 45.6178 39.7104 46.0658 40.2704 46.4978C40.8304 46.9298 41.3344 47.2578 41.7824 47.4818C41.8784 47.5618 41.9024 47.7138 41.8544 47.9378C41.8224 48.1778 41.7584 48.4018 41.6624 48.6098C41.5824 48.8178 41.5104 48.9298 41.4464 48.9458ZM35.3984 39.5378C35.7664 39.5058 36.1664 39.4098 36.5984 39.2498C37.0464 39.0738 37.5184 38.8818 38.0144 38.6738C38.4784 38.4498 38.9344 38.2098 39.3824 37.9538C39.8464 37.6818 40.2624 37.3858 40.6304 37.0658C41.0144 36.7458 41.3104 36.4018 41.5184 36.0338C41.7424 35.6658 41.8384 35.2738 41.8064 34.8578C41.8064 34.6498 41.7424 34.4178 41.6144 34.1618C41.4864 33.9058 41.3184 33.6738 41.1104 33.4658C40.9184 33.2578 40.7184 33.1218 40.5104 33.0578C39.8704 32.8978 39.3824 32.8018 39.0464 32.7698C38.7104 32.7378 38.4624 32.7858 38.3024 32.9138C38.1584 33.0418 38.0464 33.2658 37.9664 33.5858C37.9664 33.6338 37.9024 33.7858 37.7744 34.0418C37.6464 34.2978 37.4864 34.6258 37.2944 35.0258C37.1184 35.4098 36.9424 35.8258 36.7664 36.2738C36.3024 37.2178 35.9584 37.9138 35.7344 38.3618C35.5264 38.7938 35.3984 39.0818 35.3504 39.2258C35.3184 39.3698 35.3344 39.4738 35.3984 39.5378Z" fill="#FFFCFC"/>
</svg>
