<svg width="77" height="78" viewBox="0 0 77 78" fill="none" xmlns="http://www.w3.org/2000/svg">
<path d="M38.123 0L46.6822 26.9483H74.3802L51.9721 43.6033L60.5312 70.5517L38.123 53.8967L15.7149 70.5517L24.274 43.6033L1.86588 26.9483H29.5639L38.123 0Z" fill="#FE4C80"/>
<path d="M35.0464 49.6098C34.7584 49.5298 34.5264 49.4578 34.3504 49.3938C34.1744 49.3458 34.0864 49.3218 34.0864 49.3218C34.1184 49.2418 34.1024 49.1698 34.0384 49.1058C33.9904 49.0418 33.8784 49.0018 33.7024 48.9858C33.4624 48.8258 33.2144 48.6018 32.9584 48.3138C32.7024 48.0258 32.4784 47.7298 32.2864 47.4258C32.0944 47.1218 31.9664 46.8978 31.9024 46.7538C31.7904 46.5138 31.7984 46.3698 31.9264 46.3218C32.0544 46.2578 32.2064 46.1858 32.3824 46.1058C32.5584 45.9778 32.7424 45.8818 32.9344 45.8178C33.1424 45.7538 33.3104 45.8578 33.4384 46.1298C33.6464 46.4978 33.9664 46.8098 34.3984 47.0658C34.8464 47.3218 35.3504 47.4738 35.9104 47.5218C36.4864 47.5698 37.0624 47.4738 37.6384 47.2338C38.0224 47.0578 38.2304 46.8178 38.2624 46.5138C38.2944 46.1938 38.1744 45.8258 37.9024 45.4098C37.8544 45.2818 37.7824 45.1778 37.6864 45.0978C37.6064 45.0178 37.4784 44.9138 37.3024 44.7858C37.1424 44.6578 36.9104 44.4498 36.6064 44.1618C36.3664 44.0498 36.1424 43.9458 35.9344 43.8498C35.7424 43.7538 35.5344 43.6498 35.3104 43.5378C35.0544 43.4098 34.7664 43.2338 34.4464 43.0098C34.1264 42.7698 33.8304 42.5138 33.5584 42.2418C33.2864 41.9538 33.0784 41.6818 32.9344 41.4258C32.6784 41.1858 32.5184 40.8578 32.4544 40.4418C32.3904 40.0098 32.3984 39.5538 32.4784 39.0738C32.5744 38.5938 32.7264 38.1618 32.9344 37.7778C33.0304 37.5538 33.2064 37.2658 33.4624 36.9138C33.7184 36.5458 34.0064 36.1698 34.3264 35.7858C34.6464 35.4018 34.9504 35.0578 35.2384 34.7538C35.5424 34.4338 35.7824 34.2178 35.9584 34.1058C36.0864 33.9778 36.2224 33.8498 36.3664 33.7218C36.5104 33.5778 36.5824 33.5058 36.5824 33.5058C36.5984 33.4258 36.6224 33.3858 36.6544 33.3858C36.7024 33.3858 36.7264 33.3858 36.7264 33.3858C36.8064 33.3378 36.9824 33.2578 37.2544 33.1458C37.5264 33.0338 37.8224 32.8258 38.1424 32.5218C39.2144 32.0098 40.1264 31.6658 40.8784 31.4898C41.6304 31.2978 42.2224 31.2018 42.6544 31.2018C43.0544 31.2178 43.4464 31.3298 43.8304 31.5378C44.2144 31.7298 44.5424 31.9778 44.8144 32.2818C45.1024 32.5858 45.2704 32.9298 45.3184 33.3138C45.4304 33.6978 45.3744 34.1618 45.1504 34.7058C44.9424 35.2338 44.6464 35.7378 44.2624 36.2178C43.8944 36.6818 43.5104 37.0258 43.1104 37.2498C42.6624 37.4418 42.2784 37.4658 41.9584 37.3218C41.6544 37.1778 41.5104 36.9538 41.5264 36.6498C41.5264 36.5218 41.5664 36.3698 41.6464 36.1938C41.7424 36.0178 41.9904 35.7058 42.3904 35.2578C42.9024 34.5058 43.1744 33.9698 43.2064 33.6498C43.2384 33.3298 43.0944 33.1458 42.7744 33.0978C42.6784 33.0658 42.4944 33.0738 42.2224 33.1218C41.9504 33.1698 41.6544 33.2338 41.3344 33.3138C41.0304 33.3778 40.7584 33.4498 40.5184 33.5298C40.2944 33.6098 40.1824 33.6658 40.1824 33.6978C40.1824 33.6978 40.1824 33.7218 40.1824 33.7698C40.1824 33.8178 40.1504 33.8338 40.0864 33.8178C40.0544 33.8178 39.9424 33.8738 39.7504 33.9858C39.5744 34.0818 39.3584 34.2098 39.1024 34.3698C38.8464 34.5298 38.5904 34.6978 38.3344 34.8738C38.0944 35.0338 37.8864 35.1778 37.7104 35.3058C37.5344 35.4338 37.4384 35.5138 37.4224 35.5458C37.3904 35.7218 37.2064 35.8818 36.8704 36.0258C36.5504 36.2178 36.2704 36.4898 36.0304 36.8418C35.7904 37.1938 35.5104 37.6418 35.1904 38.1858C34.9184 38.5538 34.7264 38.9538 34.6144 39.3858C34.5024 39.8018 34.5024 40.1378 34.6144 40.3938C34.6944 40.6498 34.9104 40.9058 35.2624 41.1618C35.6304 41.4018 36.1264 41.7058 36.7504 42.0738C37.2944 42.3778 37.8064 42.6978 38.2864 43.0338C38.7664 43.3698 39.1744 43.6978 39.5104 44.0178C39.8464 44.3218 40.0624 44.5778 40.1584 44.7858C40.3504 45.0578 40.4624 45.3698 40.4944 45.7218C40.5424 46.0738 40.5424 46.4178 40.4944 46.7538C40.4624 47.0738 40.4144 47.3378 40.3504 47.5458C40.2384 47.8018 40.0624 48.0738 39.8224 48.3618C39.5984 48.6498 39.3904 48.7858 39.1984 48.7698C39.0224 48.8178 38.8864 48.8738 38.7904 48.9378C38.7104 49.0018 38.6144 49.0578 38.5024 49.1058C38.3904 49.1698 38.1264 49.2418 37.7104 49.3218C37.2944 49.4178 36.8384 49.4898 36.3424 49.5378C35.8464 49.6018 35.4144 49.6258 35.0464 49.6098Z" fill="#FFFCFC"/>
</svg>
