<svg width="77" height="79" viewBox="0 0 77 79" fill="none" xmlns="http://www.w3.org/2000/svg">
<path d="M38.125 0L46.6846 27.2938L74.384 27.2938L51.9747 44.1623L60.5343 71.4562L38.125 54.5877L15.7157 71.4562L24.2753 44.1623L1.86597 27.2938L29.5654 27.2938L38.125 0Z" fill="#A5CE53"/>
<path d="M34.7787 48.6304C34.4907 48.6464 34.2507 48.5104 34.0587 48.2224C33.8667 47.9344 33.7787 47.6944 33.7947 47.5024C33.8107 47.2464 33.8827 46.8784 34.0107 46.3984C34.1387 45.9184 34.2827 45.4304 34.4427 44.9344C34.6027 44.4384 34.7467 44.0464 34.8747 43.7584C34.9387 43.5024 34.9947 43.2784 35.0427 43.0864C35.1067 42.8784 35.1467 42.7424 35.1627 42.6784C35.2107 42.6144 35.2827 42.4464 35.3787 42.1744C35.4907 41.9024 35.5787 41.6384 35.6427 41.3824C35.6747 41.2544 35.7387 41.0144 35.8347 40.6624C35.9467 40.2944 36.0747 39.8704 36.2187 39.3904C36.3787 38.9104 36.5307 38.4384 36.6747 37.9744C36.8347 37.5104 36.9707 37.1024 37.0827 36.7504C37.1947 36.3984 37.2667 36.1664 37.2987 36.0544C37.4267 35.8624 37.5227 35.6784 37.5867 35.5024C37.6507 35.3264 37.6907 35.2064 37.7067 35.1424C37.8027 35.0784 37.8587 34.9984 37.8747 34.9024C37.8907 34.7904 37.8987 34.7024 37.8987 34.6384C37.8987 34.5584 37.9227 34.4944 37.9707 34.4464C38.0347 34.3984 38.0667 34.3424 38.0667 34.2784C38.1307 34.2304 38.1707 34.2224 38.1867 34.2544C38.2027 34.2864 38.2507 34.2624 38.3307 34.1824L38.4507 33.3664L40.5867 33.3424C40.5547 33.5344 40.5067 33.7744 40.4427 34.0624C40.3787 34.3344 40.2267 34.7024 39.9867 35.1664C39.9067 35.4864 39.8107 35.7744 39.6987 36.0304C39.6027 36.2864 39.5627 36.4544 39.5787 36.5344C39.5467 36.5664 39.4747 36.7264 39.3627 37.0144C39.2667 37.3024 39.1467 37.6544 39.0027 38.0704C38.8747 38.4864 38.7387 38.9024 38.5947 39.3184C38.4667 39.7344 38.3467 40.1024 38.2347 40.4224C38.1387 40.7264 38.0747 40.9184 38.0427 40.9984C37.9147 41.2544 37.7707 41.6304 37.6107 42.1264C37.4507 42.6224 37.2107 43.2944 36.8907 44.1424C36.7627 44.3984 36.6027 44.7824 36.4107 45.2944C36.2347 45.8064 36.0907 46.2704 35.9787 46.6864C35.8027 47.3104 35.6427 47.7584 35.4987 48.0304C35.3707 48.3024 35.2507 48.4624 35.1387 48.5104C35.0267 48.5744 34.9067 48.6144 34.7787 48.6304ZM34.9947 34.5184C34.3387 34.5824 33.8907 34.5024 33.6507 34.2784C33.4267 34.0544 33.3467 33.8144 33.4107 33.5584C33.4587 33.3664 33.5707 33.2064 33.7467 33.0784C33.9387 32.9344 34.2827 32.8144 34.7787 32.7184C34.9547 32.6864 35.1787 32.6464 35.4507 32.5984C35.7387 32.5504 36.0107 32.5024 36.2667 32.4544C36.7947 32.3904 37.2267 32.3344 37.5627 32.2864C37.9147 32.2384 38.2747 32.1984 38.6427 32.1664C39.0107 32.1344 39.4747 32.1024 40.0347 32.0704C40.4987 32.0384 40.8907 32.0144 41.2107 31.9984C41.5467 31.9664 41.7147 31.9504 41.7147 31.9504C41.7627 31.9504 41.9307 31.9664 42.2187 31.9984C42.5067 32.0304 42.8187 32.0704 43.1547 32.1184C43.4907 32.1664 43.7387 32.2224 43.8987 32.2864C44.2667 32.3664 44.5627 32.5104 44.7867 32.7184C45.0107 32.9264 45.1547 33.1664 45.2187 33.4384C45.2667 33.6304 45.2667 33.7824 45.2187 33.8944C45.1707 33.9904 45.0827 34.0704 44.9547 34.1344C44.5867 34.2464 44.2827 34.3424 44.0427 34.4224C43.8187 34.4864 43.5947 34.4784 43.3707 34.3984C43.2907 34.3184 43.1947 34.2464 43.0827 34.1824C42.9867 34.1184 42.8107 34.0704 42.5547 34.0384C42.3147 33.9904 41.9307 33.9504 41.4027 33.9184C40.9547 33.9664 40.5627 33.9904 40.2267 33.9904C39.8907 33.9904 39.7227 34.0304 39.7227 34.1104L38.3067 34.1824L37.1307 34.3024C36.9707 34.3184 36.7467 34.3424 36.4587 34.3744C36.1707 34.3904 35.8907 34.4144 35.6187 34.4464C35.3467 34.4624 35.1387 34.4864 34.9947 34.5184Z" fill="#FFFCFC"/>
</svg>
